<svg width="38" height="38" viewBox="0 0 38 38" fill="none" xmlns="http://www.w3.org/2000/svg">
<g opacity="0.3" clip-path="url(#clip0_1_394)" filter="url(#filter0_f_1_394)">
<rect width="32" height="32" transform="matrix(-1 0 0 1 35 3)" fill="#0974F8" fill-opacity="0.3"/>
<g filter="url(#filter1_d_1_394)">
<path d="M36 29L29 36M36 29V32L32 36H29M36 29V26M29 36H26M34.5 26L34.5 23" stroke="#19C2EF" stroke-opacity="0.8" shape-rendering="crispEdges"/>
</g>
<g filter="url(#filter2_d_1_394)">
<path d="M2 29L9 36M2 29V32L6 36H9M2 29V26M9 36H12M3.5 26L3.5 23" stroke="#19C2EF" stroke-opacity="0.8" shape-rendering="crispEdges"/>
</g>
<g filter="url(#filter3_d_1_394)">
<path d="M36 9L29 2M36 9V6L32 2H29M36 9V12M29 2H26M34.5 12L34.5 15" stroke="#19C2EF" stroke-opacity="0.8" shape-rendering="crispEdges"/>
</g>
<g filter="url(#filter4_d_1_394)">
<path d="M2 9L9 2M2 9V6L6 2H9M2 9V12M9 2H12M3.5 12L3.5 15" stroke="#19C2EF" stroke-opacity="0.8" shape-rendering="crispEdges"/>
</g>
<g clip-path="url(#clip1_1_394)">
<g filter="url(#filter5_d_1_394)">
<path fill-rule="evenodd" clip-rule="evenodd" d="M9 8H14V13H9V8ZM9 15.5H14V20.5H9V15.5ZM9 23H14V28H9V23ZM16.5 8H21.5V13H16.5V8ZM16.5 15.5H21.5V20.5H16.5V15.5ZM16.5 23H21.5V28H16.5V23ZM24 8H29V13H24V8ZM24 15.5H29V20.5H24V15.5ZM24 23H29V28H24V23Z" fill="url(#paint0_linear_1_394)"/>
<path d="M9.5 8.5H13.5V12.5H9.5V8.5ZM9.5 16H13.5V20H9.5V16ZM9.5 23.5H13.5V27.5H9.5V23.5ZM17 8.5H21V12.5H17V8.5ZM17 16H21V20H17V16ZM17 23.5H21V27.5H17V23.5ZM24.5 8.5H28.5V12.5H24.5V8.5ZM24.5 16H28.5V20H24.5V16ZM24.5 23.5H28.5V27.5H24.5V23.5Z" stroke="#19C2EF" stroke-opacity="0.55"/>
</g>
</g>
</g>
<defs>
<filter id="filter0_f_1_394" x="0" y="0" width="38" height="38" filterUnits="userSpaceOnUse" color-interpolation-filters="sRGB">
<feFlood flood-opacity="0" result="BackgroundImageFix"/>
<feBlend mode="normal" in="SourceGraphic" in2="BackgroundImageFix" result="shape"/>
<feGaussianBlur stdDeviation="0.5" result="effect1_foregroundBlur_1_394"/>
</filter>
<filter id="filter1_d_1_394" x="21" y="18" width="20.5" height="23.5" filterUnits="userSpaceOnUse" color-interpolation-filters="sRGB">
<feFlood flood-opacity="0" result="BackgroundImageFix"/>
<feColorMatrix in="SourceAlpha" type="matrix" values="0 0 0 0 0 0 0 0 0 0 0 0 0 0 0 0 0 0 127 0" result="hardAlpha"/>
<feOffset/>
<feGaussianBlur stdDeviation="2.5"/>
<feComposite in2="hardAlpha" operator="out"/>
<feColorMatrix type="matrix" values="0 0 0 0 0.0980392 0 0 0 0 0.760784 0 0 0 0 0.937255 0 0 0 0.55 0"/>
<feBlend mode="normal" in2="BackgroundImageFix" result="effect1_dropShadow_1_394"/>
<feBlend mode="normal" in="SourceGraphic" in2="effect1_dropShadow_1_394" result="shape"/>
</filter>
<filter id="filter2_d_1_394" x="-3.5" y="18" width="20.5" height="23.5" filterUnits="userSpaceOnUse" color-interpolation-filters="sRGB">
<feFlood flood-opacity="0" result="BackgroundImageFix"/>
<feColorMatrix in="SourceAlpha" type="matrix" values="0 0 0 0 0 0 0 0 0 0 0 0 0 0 0 0 0 0 127 0" result="hardAlpha"/>
<feOffset/>
<feGaussianBlur stdDeviation="2.5"/>
<feComposite in2="hardAlpha" operator="out"/>
<feColorMatrix type="matrix" values="0 0 0 0 0.0980392 0 0 0 0 0.760784 0 0 0 0 0.937255 0 0 0 0.55 0"/>
<feBlend mode="normal" in2="BackgroundImageFix" result="effect1_dropShadow_1_394"/>
<feBlend mode="normal" in="SourceGraphic" in2="effect1_dropShadow_1_394" result="shape"/>
</filter>
<filter id="filter3_d_1_394" x="21" y="-3.5" width="20.5" height="23.5" filterUnits="userSpaceOnUse" color-interpolation-filters="sRGB">
<feFlood flood-opacity="0" result="BackgroundImageFix"/>
<feColorMatrix in="SourceAlpha" type="matrix" values="0 0 0 0 0 0 0 0 0 0 0 0 0 0 0 0 0 0 127 0" result="hardAlpha"/>
<feOffset/>
<feGaussianBlur stdDeviation="2.5"/>
<feComposite in2="hardAlpha" operator="out"/>
<feColorMatrix type="matrix" values="0 0 0 0 0.0980392 0 0 0 0 0.760784 0 0 0 0 0.937255 0 0 0 0.55 0"/>
<feBlend mode="normal" in2="BackgroundImageFix" result="effect1_dropShadow_1_394"/>
<feBlend mode="normal" in="SourceGraphic" in2="effect1_dropShadow_1_394" result="shape"/>
</filter>
<filter id="filter4_d_1_394" x="-3.5" y="-3.5" width="20.5" height="23.5" filterUnits="userSpaceOnUse" color-interpolation-filters="sRGB">
<feFlood flood-opacity="0" result="BackgroundImageFix"/>
<feColorMatrix in="SourceAlpha" type="matrix" values="0 0 0 0 0 0 0 0 0 0 0 0 0 0 0 0 0 0 127 0" result="hardAlpha"/>
<feOffset/>
<feGaussianBlur stdDeviation="2.5"/>
<feComposite in2="hardAlpha" operator="out"/>
<feColorMatrix type="matrix" values="0 0 0 0 0.0980392 0 0 0 0 0.760784 0 0 0 0 0.937255 0 0 0 0.55 0"/>
<feBlend mode="normal" in2="BackgroundImageFix" result="effect1_dropShadow_1_394"/>
<feBlend mode="normal" in="SourceGraphic" in2="effect1_dropShadow_1_394" result="shape"/>
</filter>
<filter id="filter5_d_1_394" x="5" y="4" width="28" height="28" filterUnits="userSpaceOnUse" color-interpolation-filters="sRGB">
<feFlood flood-opacity="0" result="BackgroundImageFix"/>
<feColorMatrix in="SourceAlpha" type="matrix" values="0 0 0 0 0 0 0 0 0 0 0 0 0 0 0 0 0 0 127 0" result="hardAlpha"/>
<feOffset/>
<feGaussianBlur stdDeviation="2"/>
<feComposite in2="hardAlpha" operator="out"/>
<feColorMatrix type="matrix" values="0 0 0 0 0.0980392 0 0 0 0 0.760784 0 0 0 0 0.937255 0 0 0 0.55 0"/>
<feBlend mode="normal" in2="BackgroundImageFix" result="effect1_dropShadow_1_394"/>
<feBlend mode="normal" in="SourceGraphic" in2="effect1_dropShadow_1_394" result="shape"/>
</filter>
<linearGradient id="paint0_linear_1_394" x1="19" y1="8" x2="19" y2="28" gradientUnits="userSpaceOnUse">
<stop stop-color="#0974F8"/>
<stop offset="1" stop-color="#4FB2FE"/>
</linearGradient>
<clipPath id="clip0_1_394">
<rect width="36" height="36" fill="white" transform="matrix(-1 0 0 1 37 1)"/>
</clipPath>
<clipPath id="clip1_1_394">
<rect width="28" height="28" fill="white" transform="matrix(-1 0 0 1 33 5)"/>
</clipPath>
</defs>
</svg>
